# xmcd
#
# Track frame offsets:
#	150
#	14093
#	29243
#	47095
#	64191
#	81067
#	99646
#	115498
#	133937
#	149414
#	178842
#
# Disc length: 2664 seconds
#
# Revision: 1
# Processed by: cddbd v1.5.2PL0 Copyright (c) Steve Scherf et al.
# Submitted via: audiograbber 1.83.01
#
DISCID=ab0a660b
DTITLE=ASK - Country Vol. 2
DYEAR=1900
DGENRE=Karaoke
TTITLE0=The Talkin' Song Repair Blues - Alan Jakson
TTITLE1=If She Was Anyother Woman - Buddy Jewell
TTITLE2=Mississippi Girl - Faith Hill
TTITLE3=Somebody's Hero - Jamie O'Neal
TTITLE4=He Oughta Know That By Now - Lee Ann Womack
TTITLE5=Something To Be Proud Of - Montgomery Gentry
TTITLE6=In A Real Love - Phil Vasser
TTITLE7=My Sister - Reba McEntire
TTITLE8=Songs About Me - Trace Adkins
TTITLE9=Help Somebody - Van Zant
TTITLE10=Data Track
EXTD=
EXTT0=
EXTT1=
EXTT2=
EXTT3=
EXTT4=
EXTT5=
EXTT6=
EXTT7=
EXTT8=
EXTT9=
EXTT10=
PLAYORDER=
